<?xml version="1.0" encoding="UTF-8"?>
<svg xmlns="http://www.w3.org/2000/svg" xmlns:xlink="http://www.w3.org/1999/xlink" width="100pt" height="100pt" viewBox="0 0 100 100" version="1.1">
    <g id="surface1">
        <path style=" stroke:none;fill-rule:nonzero;fill:rgb(94.117647%,33.333333%,35.294118%);fill-opacity:1;" d="M 100 50 C 100 77.613281 77.613281 100 50 100 C 22.386719 100 0 77.613281 0 50 C 0 22.386719 22.386719 0 50 0 C 77.613281 0 100 22.386719 100 50 Z M 100 50 "/>
        <path style=" stroke:none;fill-rule:nonzero;fill:rgb(80.784314%,27.058824%,29.019608%);fill-opacity:1;" d="M 29.023438 72.554688 L 55.992188 99.527344 C 78.707031 96.84375 96.6875 79.023438 99.527344 56.308594 L 72.398438 29.179688 Z M 29.023438 72.554688 "/>
        <path style=" stroke:none;fill-rule:nonzero;fill:rgb(100%,100%,100%);fill-opacity:1;" d="M 73.660156 61.039062 C 75.867188 63.25 75.867188 67.035156 73.660156 69.242188 L 69.242188 73.660156 C 67.035156 75.867188 63.25 75.867188 61.039062 73.660156 L 26.339844 38.960938 C 24.132812 36.75 24.132812 32.964844 26.339844 30.757812 L 30.914062 26.183594 C 33.121094 23.976562 36.910156 23.976562 39.117188 26.183594 Z M 73.660156 61.039062 "/>
        <path style=" stroke:none;fill-rule:nonzero;fill:rgb(100%,100%,100%);fill-opacity:1;" d="M 55.363281 42.585938 L 42.585938 55.363281 L 61.039062 73.660156 C 63.25 75.867188 67.035156 75.867188 69.242188 73.660156 L 73.816406 69.085938 C 76.023438 66.878906 76.023438 63.089844 73.816406 60.882812 Z M 55.363281 42.585938 "/>
        <path style=" stroke:none;fill-rule:nonzero;fill:rgb(100%,100%,100%);fill-opacity:1;" d="M 61.039062 26.339844 C 63.25 24.132812 67.035156 24.132812 69.242188 26.339844 L 73.816406 30.914062 C 76.023438 33.121094 76.023438 36.910156 73.816406 39.117188 L 38.960938 73.660156 C 36.75 75.867188 32.964844 75.867188 30.757812 73.660156 L 26.339844 69.242188 C 24.132812 67.035156 24.132812 63.25 26.339844 61.039062 Z M 61.039062 26.339844 "/>
    </g>
</svg>
