<?xml version="1.0" encoding="UTF-8"?>
<svg xmlns="http://www.w3.org/2000/svg" xmlns:xlink="http://www.w3.org/1999/xlink" width="100pt" height="100pt" viewBox="0 0 100 100" version="1.1">
    <g id="surface1">
        <path style=" stroke:none;fill-rule:nonzero;fill:rgb(15.294118%,51.372549%,89.803922%);fill-opacity:1;" d="M 100 50 C 100 77.613281 77.613281 100 50 100 C 22.386719 100 0 77.613281 0 50 C 0 22.386719 22.386719 0 50 0 C 77.613281 0 100 22.386719 100 50 Z M 100 50 "/>
        <path style=" stroke:none;fill-rule:nonzero;fill:rgb(15.294118%,51.372549%,89.803922%);fill-opacity:1;" d="M 100 50 C 100 22.429688 77.570312 0 50 0 L 50 100 C 77.570312 100 100 77.570312 100 50 Z M 100 50 "/>
        <path style=" stroke:none;fill-rule:nonzero;fill:rgb(100%,100%,100%);fill-opacity:1;" d="M 50 37.238281 C 44.925781 37.238281 40.792969 33.109375 40.792969 28.035156 C 40.792969 22.957031 44.925781 18.828125 50 18.828125 C 55.074219 18.828125 59.207031 22.957031 59.207031 28.035156 C 59.207031 33.109375 55.074219 37.238281 50 37.238281 Z M 50 37.238281 "/>
        <path style=" stroke:none;fill-rule:nonzero;fill:rgb(100%,100%,100%);fill-opacity:1;" d="M 50 43.933594 C 44.925781 43.933594 40.792969 48.0625 40.792969 53.136719 L 40.792969 71.964844 C 40.792969 77.042969 44.925781 81.171875 50 81.171875 C 55.074219 81.171875 59.207031 77.042969 59.207031 71.964844 L 59.207031 53.136719 C 59.207031 48.0625 55.074219 43.933594 50 43.933594 Z M 50 43.933594 "/>
        <path style=" stroke:none;fill-rule:nonzero;fill:rgb(100%,100%,100%);fill-opacity:1;" d="M 59.207031 28.035156 C 59.207031 22.957031 55.074219 18.828125 50 18.828125 L 50 37.238281 C 55.074219 37.238281 59.207031 33.109375 59.207031 28.035156 Z M 59.207031 28.035156 "/>
        <path style=" stroke:none;fill-rule:nonzero;fill:rgb(100%,100%,100%);fill-opacity:1;" d="M 59.207031 71.964844 L 59.207031 53.136719 C 59.207031 48.0625 55.074219 43.933594 50 43.933594 L 50 81.171875 C 55.074219 81.171875 59.207031 77.042969 59.207031 71.964844 Z M 59.207031 71.964844 "/>
    </g>
</svg>
