<?xml version="1.0" encoding="UTF-8"?>
<svg xmlns="http://www.w3.org/2000/svg" xmlns:xlink="http://www.w3.org/1999/xlink" width="100pt" height="100pt" viewBox="0 0 100 100" version="1.1">
    <g id="surface1">
        <path style=" stroke:none;fill-rule:nonzero;fill:rgb(40.392157%,81.176471%,61.568627%);fill-opacity:1;" d="M 100 50 C 100 77.613281 77.613281 100 50 100 C 22.386719 100 0 77.613281 0 50 C 0 22.386719 22.386719 0 50 0 C 77.613281 0 100 22.386719 100 50 Z M 100 50 "/>
        <path style=" stroke:none;fill-rule:nonzero;fill:rgb(5.098039%,74.117647%,50.980392%);fill-opacity:1;" d="M 37.222656 72.554688 L 62.933594 98.265625 C 84.226562 92.585938 100 73.1875 100 50 C 100 49.527344 100 49.054688 100 48.582031 L 79.8125 29.96875 Z M 37.222656 72.554688 "/>
        <path style=" stroke:none;fill-rule:nonzero;fill:rgb(100%,100%,100%);fill-opacity:1;" d="M 51.261719 61.199219 C 53.46875 63.40625 53.46875 67.191406 51.261719 69.402344 L 46.6875 73.976562 C 44.480469 76.183594 40.695312 76.183594 38.484375 73.976562 L 18.453125 53.785156 C 16.246094 51.578125 16.246094 47.792969 18.453125 45.582031 L 23.027344 41.007812 C 25.238281 38.800781 29.023438 38.800781 31.230469 41.007812 Z M 51.261719 61.199219 "/>
        <path style=" stroke:none;fill-rule:nonzero;fill:rgb(100%,100%,100%);fill-opacity:1;" d="M 68.769531 26.339844 C 70.976562 24.132812 74.761719 24.132812 76.972656 26.339844 L 81.546875 30.914062 C 83.753906 33.121094 83.753906 36.910156 81.546875 39.117188 L 46.84375 73.660156 C 44.636719 75.867188 40.851562 75.867188 38.644531 73.660156 L 34.070312 69.085938 C 31.859375 66.878906 31.859375 63.089844 34.070312 60.882812 Z M 68.769531 26.339844 "/>
    </g>
</svg>
