<?xml version="1.0" encoding="UTF-8"?>
<svg xmlns="http://www.w3.org/2000/svg" xmlns:xlink="http://www.w3.org/1999/xlink" width="100pt" height="100pt" viewBox="0 0 100 100" version="1.1">
    <g id="surface1">
        <path style=" stroke:none;fill-rule:nonzero;fill:rgb(95.686275%,78.431373%,38.431373%);fill-opacity:1;" d="M 100 50 C 100 63.300781 94.835938 75.824219 85.460938 85.253906 C 76.089844 94.679688 63.613281 99.914062 50.328125 99.996094 C 50.296875 99.996094 50.257812 100 50.226562 99.996094 C 50.152344 100 50.078125 100 50 100 C 36.644531 100 24.089844 94.800781 14.644531 85.355469 C 5.199219 75.914062 0 63.355469 0 50 C 0 36.644531 5.199219 24.089844 14.644531 14.644531 C 24.089844 5.199219 36.644531 0 50 0 C 50.078125 0 50.148438 0 50.226562 0.00390625 C 50.261719 0.00390625 50.296875 0.00390625 50.332031 0.00390625 C 63.617188 0.0898438 76.089844 5.324219 85.460938 14.75 C 94.835938 24.179688 100 36.699219 100 50 Z M 100 50 "/>
        <path style=" stroke:none;fill-rule:nonzero;fill:rgb(95.686275%,78.431373%,38.431373%);fill-opacity:1;" d="M 100 50 C 100 63.300781 94.835938 75.824219 85.460938 85.253906 C 76.089844 94.679688 63.613281 99.914062 50.328125 99.996094 C 50.296875 99.996094 50.257812 100 50.226562 99.996094 L 50.226562 0.00390625 C 50.261719 0.00390625 50.296875 0.00390625 50.332031 0.00390625 C 63.617188 0.0898438 76.089844 5.324219 85.460938 14.75 C 94.835938 24.179688 100 36.699219 100 50 Z M 100 50 "/>
        <path style=" stroke:none;fill-rule:nonzero;fill:rgb(100%,100%,100%);fill-opacity:1;" d="M 58.578125 29.386719 L 58.578125 51.738281 C 58.578125 56.332031 54.839844 60.070312 50.246094 60.070312 L 50.226562 60.070312 C 48.082031 60.007812 45.863281 59.140625 44.355469 57.632812 C 42.785156 56.058594 41.914062 53.964844 41.914062 51.738281 L 41.914062 29.386719 C 41.914062 24.84375 45.6875 21.183594 50.226562 21.054688 L 50.246094 21.054688 C 54.839844 21.054688 58.578125 24.792969 58.578125 29.386719 Z M 58.578125 29.386719 "/>
        <path style=" stroke:none;fill-rule:nonzero;fill:rgb(100%,100%,100%);fill-opacity:1;" d="M 58.132812 70.632812 C 58.132812 74.984375 54.597656 78.519531 50.246094 78.519531 L 50.226562 78.519531 C 45.886719 78.507812 42.363281 74.976562 42.363281 70.632812 C 42.363281 66.292969 45.886719 62.757812 50.226562 62.746094 L 50.246094 62.746094 C 54.597656 62.746094 58.132812 66.285156 58.132812 70.632812 Z M 58.132812 70.632812 "/>
        <path style=" stroke:none;fill-rule:nonzero;fill:rgb(100%,100%,100%);fill-opacity:1;" d="M 58.132812 70.632812 C 58.132812 74.984375 54.597656 78.519531 50.246094 78.519531 L 50.226562 78.519531 L 50.226562 62.746094 L 50.246094 62.746094 C 54.597656 62.746094 58.132812 66.285156 58.132812 70.632812 Z M 58.132812 70.632812 "/>
        <path style=" stroke:none;fill-rule:nonzero;fill:rgb(100%,100%,100%);fill-opacity:1;" d="M 58.578125 29.386719 L 58.578125 51.738281 C 58.578125 56.332031 54.839844 60.070312 50.246094 60.070312 L 50.226562 60.070312 L 50.226562 21.054688 L 50.246094 21.054688 C 54.839844 21.054688 58.578125 24.792969 58.578125 29.386719 Z M 58.578125 29.386719 "/>
    </g>
</svg>
